<mxfile host="app.diagrams.net" modified="2021-04-25T06:03:52.495Z" agent="5.0 (Macintosh; Intel Mac OS X 10_15_7) AppleWebKit/537.36 (KHTML, like Gecko) Chrome/90.0.4430.85 Safari/537.36" etag="WVo8OdHw9slwicgMIFBp" version="14.6.6" type="github">
  <diagram id="imogcfVgPUyU8T1oQsEt" name="Page-1">
    <mxGraphModel dx="946" dy="526" grid="1" gridSize="10" guides="1" tooltips="1" connect="1" arrows="1" fold="1" page="1" pageScale="1" pageWidth="827" pageHeight="1169" math="0" shadow="0">
      <root>
        <mxCell id="0" />
        <mxCell id="1" parent="0" />
        <mxCell id="m5Ycttszaz3Ppnd9wIek-1" value="Database" style="shape=umlActor;verticalLabelPosition=bottom;verticalAlign=top;html=1;outlineConnect=0;" vertex="1" parent="1">
          <mxGeometry x="930" y="237" width="30" height="60" as="geometry" />
        </mxCell>
        <mxCell id="m5Ycttszaz3Ppnd9wIek-2" style="edgeStyle=orthogonalEdgeStyle;rounded=0;orthogonalLoop=1;jettySize=auto;html=1;exitX=0.359;exitY=0.985;exitDx=0;exitDy=0;entryX=1.003;entryY=0.394;entryDx=0;entryDy=0;entryPerimeter=0;startArrow=none;startFill=0;endArrow=none;endFill=0;exitPerimeter=0;" edge="1" parent="1" source="m5Ycttszaz3Ppnd9wIek-21" target="m5Ycttszaz3Ppnd9wIek-12">
          <mxGeometry relative="1" as="geometry">
            <Array as="points">
              <mxPoint x="400" y="400.9999999999999" />
            </Array>
          </mxGeometry>
        </mxCell>
        <mxCell id="m5Ycttszaz3Ppnd9wIek-3" style="edgeStyle=orthogonalEdgeStyle;rounded=0;orthogonalLoop=1;jettySize=auto;html=1;exitX=0.5;exitY=1;exitDx=0;exitDy=0;exitPerimeter=0;" edge="1" parent="1">
          <mxGeometry relative="1" as="geometry">
            <mxPoint x="215" y="303.9999999999999" as="sourcePoint" />
            <mxPoint x="215" y="303.9999999999999" as="targetPoint" />
          </mxGeometry>
        </mxCell>
        <mxCell id="m5Ycttszaz3Ppnd9wIek-4" style="edgeStyle=orthogonalEdgeStyle;rounded=0;orthogonalLoop=1;jettySize=auto;html=1;exitX=0.5;exitY=1;exitDx=0;exitDy=0;exitPerimeter=0;" edge="1" parent="1">
          <mxGeometry relative="1" as="geometry">
            <mxPoint x="215" y="303.9999999999999" as="sourcePoint" />
            <mxPoint x="215" y="303.9999999999999" as="targetPoint" />
          </mxGeometry>
        </mxCell>
        <mxCell id="m5Ycttszaz3Ppnd9wIek-5" style="edgeStyle=orthogonalEdgeStyle;rounded=0;orthogonalLoop=1;jettySize=auto;html=1;exitX=0;exitY=0.5;exitDx=0;exitDy=0;startArrow=none;startFill=0;endArrow=none;endFill=0;" edge="1" parent="1" source="m5Ycttszaz3Ppnd9wIek-12" target="m5Ycttszaz3Ppnd9wIek-6">
          <mxGeometry relative="1" as="geometry">
            <mxPoint x="80" y="347" as="targetPoint" />
            <Array as="points">
              <mxPoint x="120" y="407" />
              <mxPoint x="120" y="347" />
            </Array>
          </mxGeometry>
        </mxCell>
        <object label="Manager" id="m5Ycttszaz3Ppnd9wIek-6">
          <mxCell style="shape=umlActor;verticalLabelPosition=bottom;verticalAlign=top;html=1;outlineConnect=0;" vertex="1" parent="1">
            <mxGeometry x="30" y="311" width="30" height="60" as="geometry" />
          </mxCell>
        </object>
        <mxCell id="m5Ycttszaz3Ppnd9wIek-7" value="conveys-requests ▶" style="text;html=1;strokeColor=none;fillColor=none;align=center;verticalAlign=middle;whiteSpace=wrap;rounded=0;rotation=0;" vertex="1" parent="1">
          <mxGeometry x="451" y="320" width="130" height="20" as="geometry" />
        </mxCell>
        <mxCell id="m5Ycttszaz3Ppnd9wIek-8" value="◀ prepares" style="text;html=1;strokeColor=none;fillColor=none;align=center;verticalAlign=middle;whiteSpace=wrap;rounded=0;" vertex="1" parent="1">
          <mxGeometry x="385" y="424" width="66" height="20" as="geometry" />
        </mxCell>
        <mxCell id="m5Ycttszaz3Ppnd9wIek-9" value="conveys-requests ▶" style="text;html=1;strokeColor=none;fillColor=none;align=center;verticalAlign=middle;whiteSpace=wrap;rounded=0;rotation=0;" vertex="1" parent="1">
          <mxGeometry x="544" y="257" width="130" height="20" as="geometry" />
        </mxCell>
        <mxCell id="m5Ycttszaz3Ppnd9wIek-10" value="◀ posts" style="text;html=1;strokeColor=none;fillColor=none;align=center;verticalAlign=middle;whiteSpace=wrap;rounded=0;" vertex="1" parent="1">
          <mxGeometry x="315" y="379" width="66" height="20" as="geometry" />
        </mxCell>
        <mxCell id="m5Ycttszaz3Ppnd9wIek-11" value="" style="group" vertex="1" connectable="0" parent="1">
          <mxGeometry x="150" y="357" width="150" height="80" as="geometry" />
        </mxCell>
        <mxCell id="m5Ycttszaz3Ppnd9wIek-12" value="&amp;lt;&amp;lt;boundary&amp;gt;&amp;gt;&lt;br&gt;Interface Page" style="rounded=0;whiteSpace=wrap;html=1;" vertex="1" parent="m5Ycttszaz3Ppnd9wIek-11">
          <mxGeometry x="10" y="20" width="140" height="60" as="geometry" />
        </mxCell>
        <mxCell id="m5Ycttszaz3Ppnd9wIek-13" value="" style="group" vertex="1" connectable="0" parent="m5Ycttszaz3Ppnd9wIek-11">
          <mxGeometry width="30" height="40" as="geometry" />
        </mxCell>
        <mxCell id="m5Ycttszaz3Ppnd9wIek-14" value="" style="whiteSpace=wrap;html=1;shape=mxgraph.basic.document" vertex="1" parent="m5Ycttszaz3Ppnd9wIek-13">
          <mxGeometry width="30" height="40" as="geometry" />
        </mxCell>
        <mxCell id="m5Ycttszaz3Ppnd9wIek-15" value="" style="endArrow=none;html=1;" edge="1" parent="m5Ycttszaz3Ppnd9wIek-13">
          <mxGeometry width="50" height="50" relative="1" as="geometry">
            <mxPoint x="5" y="9" as="sourcePoint" />
            <mxPoint x="25" y="9" as="targetPoint" />
          </mxGeometry>
        </mxCell>
        <mxCell id="m5Ycttszaz3Ppnd9wIek-16" value="" style="endArrow=none;html=1;" edge="1" parent="m5Ycttszaz3Ppnd9wIek-13">
          <mxGeometry width="50" height="50" relative="1" as="geometry">
            <mxPoint x="5" y="15" as="sourcePoint" />
            <mxPoint x="25" y="15" as="targetPoint" />
          </mxGeometry>
        </mxCell>
        <mxCell id="m5Ycttszaz3Ppnd9wIek-17" value="" style="endArrow=none;html=1;" edge="1" parent="m5Ycttszaz3Ppnd9wIek-13">
          <mxGeometry width="50" height="50" relative="1" as="geometry">
            <mxPoint x="5" y="21" as="sourcePoint" />
            <mxPoint x="25" y="21" as="targetPoint" />
          </mxGeometry>
        </mxCell>
        <mxCell id="m5Ycttszaz3Ppnd9wIek-18" value="" style="endArrow=none;html=1;" edge="1" parent="m5Ycttszaz3Ppnd9wIek-13">
          <mxGeometry width="50" height="50" relative="1" as="geometry">
            <mxPoint x="5" y="27" as="sourcePoint" />
            <mxPoint x="25" y="27" as="targetPoint" />
          </mxGeometry>
        </mxCell>
        <mxCell id="m5Ycttszaz3Ppnd9wIek-19" value="" style="endArrow=none;html=1;" edge="1" parent="m5Ycttszaz3Ppnd9wIek-13">
          <mxGeometry width="50" height="50" relative="1" as="geometry">
            <mxPoint x="5" y="33" as="sourcePoint" />
            <mxPoint x="25" y="33" as="targetPoint" />
          </mxGeometry>
        </mxCell>
        <mxCell id="m5Ycttszaz3Ppnd9wIek-20" value="" style="group" vertex="1" connectable="0" parent="1">
          <mxGeometry x="335" y="164" width="155" height="73" as="geometry" />
        </mxCell>
        <mxCell id="m5Ycttszaz3Ppnd9wIek-21" value="&amp;lt;&amp;lt;control&amp;gt;&amp;gt;&lt;br&gt;Controller" style="rounded=0;whiteSpace=wrap;html=1;" vertex="1" parent="m5Ycttszaz3Ppnd9wIek-20">
          <mxGeometry x="15" y="13" width="140" height="60" as="geometry" />
        </mxCell>
        <mxCell id="m5Ycttszaz3Ppnd9wIek-22" value="" style="verticalLabelPosition=bottom;verticalAlign=top;html=1;shape=mxgraph.basic.smiley" vertex="1" parent="m5Ycttszaz3Ppnd9wIek-20">
          <mxGeometry width="30" height="30" as="geometry" />
        </mxCell>
        <mxCell id="m5Ycttszaz3Ppnd9wIek-23" style="edgeStyle=orthogonalEdgeStyle;rounded=0;orthogonalLoop=1;jettySize=auto;html=1;exitX=1;exitY=0.5;exitDx=0;exitDy=0;entryX=0;entryY=0.5;entryDx=0;entryDy=0;endArrow=none;endFill=0;" edge="1" parent="1" source="m5Ycttszaz3Ppnd9wIek-21" target="m5Ycttszaz3Ppnd9wIek-31">
          <mxGeometry relative="1" as="geometry">
            <Array as="points">
              <mxPoint x="540" y="207" />
              <mxPoint x="540" y="279" />
            </Array>
          </mxGeometry>
        </mxCell>
        <mxCell id="m5Ycttszaz3Ppnd9wIek-24" style="edgeStyle=orthogonalEdgeStyle;rounded=0;orthogonalLoop=1;jettySize=auto;html=1;exitX=0.75;exitY=1;exitDx=0;exitDy=0;entryX=0.376;entryY=0;entryDx=0;entryDy=0;entryPerimeter=0;endArrow=none;endFill=0;" edge="1" parent="1" source="m5Ycttszaz3Ppnd9wIek-21" target="m5Ycttszaz3Ppnd9wIek-28">
          <mxGeometry relative="1" as="geometry" />
        </mxCell>
        <mxCell id="m5Ycttszaz3Ppnd9wIek-25" value="◀ provides data" style="text;html=1;strokeColor=none;fillColor=none;align=center;verticalAlign=middle;whiteSpace=wrap;rounded=0;rotation=0;" vertex="1" parent="1">
          <mxGeometry x="651" y="424" width="130" height="20" as="geometry" />
        </mxCell>
        <mxCell id="m5Ycttszaz3Ppnd9wIek-26" value="" style="group" vertex="1" connectable="0" parent="1">
          <mxGeometry x="510" y="379" width="155" height="115" as="geometry" />
        </mxCell>
        <mxCell id="m5Ycttszaz3Ppnd9wIek-27" value="" style="group" vertex="1" connectable="0" parent="m5Ycttszaz3Ppnd9wIek-26">
          <mxGeometry width="155" height="75" as="geometry" />
        </mxCell>
        <mxCell id="m5Ycttszaz3Ppnd9wIek-28" value="&amp;lt;&amp;lt;entity&amp;gt;&amp;gt;&lt;br&gt;Page Maker" style="rounded=0;whiteSpace=wrap;html=1;" vertex="1" parent="m5Ycttszaz3Ppnd9wIek-27">
          <mxGeometry x="15" y="15" width="140" height="60" as="geometry" />
        </mxCell>
        <mxCell id="m5Ycttszaz3Ppnd9wIek-29" value="" style="verticalLabelPosition=bottom;verticalAlign=top;html=1;shape=mxgraph.basic.smiley" vertex="1" parent="m5Ycttszaz3Ppnd9wIek-27">
          <mxGeometry width="30" height="30" as="geometry" />
        </mxCell>
        <mxCell id="m5Ycttszaz3Ppnd9wIek-30" value="" style="group" vertex="1" connectable="0" parent="1">
          <mxGeometry x="700" y="235" width="155" height="76" as="geometry" />
        </mxCell>
        <mxCell id="m5Ycttszaz3Ppnd9wIek-31" value="&amp;lt;&amp;lt;boundary&amp;gt;&amp;gt;&lt;br&gt;Database Connection" style="rounded=0;whiteSpace=wrap;html=1;" vertex="1" parent="m5Ycttszaz3Ppnd9wIek-30">
          <mxGeometry x="15" y="16" width="140" height="60" as="geometry" />
        </mxCell>
        <mxCell id="m5Ycttszaz3Ppnd9wIek-32" value="" style="verticalLabelPosition=bottom;verticalAlign=top;html=1;shape=mxgraph.basic.smiley" vertex="1" parent="m5Ycttszaz3Ppnd9wIek-30">
          <mxGeometry width="30" height="30" as="geometry" />
        </mxCell>
        <mxCell id="m5Ycttszaz3Ppnd9wIek-33" style="edgeStyle=orthogonalEdgeStyle;rounded=0;orthogonalLoop=1;jettySize=auto;html=1;exitX=1;exitY=0.75;exitDx=0;exitDy=0;endArrow=none;endFill=0;" edge="1" parent="1" source="m5Ycttszaz3Ppnd9wIek-12">
          <mxGeometry relative="1" as="geometry">
            <mxPoint x="525" y="422" as="targetPoint" />
            <Array as="points">
              <mxPoint x="525" y="422" />
            </Array>
          </mxGeometry>
        </mxCell>
        <mxCell id="m5Ycttszaz3Ppnd9wIek-34" style="edgeStyle=orthogonalEdgeStyle;rounded=0;orthogonalLoop=1;jettySize=auto;html=1;exitX=0.5;exitY=1;exitDx=0;exitDy=0;entryX=1;entryY=0.5;entryDx=0;entryDy=0;endArrow=none;endFill=0;" edge="1" parent="1" source="m5Ycttszaz3Ppnd9wIek-31" target="m5Ycttszaz3Ppnd9wIek-28">
          <mxGeometry relative="1" as="geometry" />
        </mxCell>
        <mxCell id="m5Ycttszaz3Ppnd9wIek-35" style="edgeStyle=orthogonalEdgeStyle;rounded=0;orthogonalLoop=1;jettySize=auto;html=1;exitX=1;exitY=0.5;exitDx=0;exitDy=0;endArrow=none;endFill=0;" edge="1" parent="1" source="m5Ycttszaz3Ppnd9wIek-31">
          <mxGeometry relative="1" as="geometry">
            <mxPoint x="920" y="278.9999999999999" as="targetPoint" />
            <Array as="points">
              <mxPoint x="855" y="278.9999999999999" />
            </Array>
          </mxGeometry>
        </mxCell>
        <mxCell id="m5Ycttszaz3Ppnd9wIek-43" value="" style="group" vertex="1" connectable="0" parent="1">
          <mxGeometry x="110" y="170" width="260" height="80" as="geometry" />
        </mxCell>
        <mxCell id="m5Ycttszaz3Ppnd9wIek-44" value="&amp;nbsp;&amp;lt;&amp;lt;entity&amp;gt;&amp;gt;&lt;br&gt;&amp;nbsp;Set Criteria Request" style="rounded=0;whiteSpace=wrap;html=1;" vertex="1" parent="m5Ycttszaz3Ppnd9wIek-43">
          <mxGeometry x="10" y="20" width="140" height="60" as="geometry" />
        </mxCell>
        <mxCell id="m5Ycttszaz3Ppnd9wIek-45" value="" style="group" vertex="1" connectable="0" parent="m5Ycttszaz3Ppnd9wIek-43">
          <mxGeometry width="30" height="40" as="geometry" />
        </mxCell>
        <mxCell id="m5Ycttszaz3Ppnd9wIek-46" value="" style="whiteSpace=wrap;html=1;shape=mxgraph.basic.document" vertex="1" parent="m5Ycttszaz3Ppnd9wIek-45">
          <mxGeometry width="30" height="40" as="geometry" />
        </mxCell>
        <mxCell id="m5Ycttszaz3Ppnd9wIek-47" value="" style="endArrow=none;html=1;" edge="1" parent="m5Ycttszaz3Ppnd9wIek-45">
          <mxGeometry width="50" height="50" relative="1" as="geometry">
            <mxPoint x="5" y="9" as="sourcePoint" />
            <mxPoint x="25" y="9" as="targetPoint" />
          </mxGeometry>
        </mxCell>
        <mxCell id="m5Ycttszaz3Ppnd9wIek-48" value="" style="endArrow=none;html=1;" edge="1" parent="m5Ycttszaz3Ppnd9wIek-45">
          <mxGeometry width="50" height="50" relative="1" as="geometry">
            <mxPoint x="5" y="15" as="sourcePoint" />
            <mxPoint x="25" y="15" as="targetPoint" />
          </mxGeometry>
        </mxCell>
        <mxCell id="m5Ycttszaz3Ppnd9wIek-49" value="" style="endArrow=none;html=1;" edge="1" parent="m5Ycttszaz3Ppnd9wIek-45">
          <mxGeometry width="50" height="50" relative="1" as="geometry">
            <mxPoint x="5" y="21" as="sourcePoint" />
            <mxPoint x="25" y="21" as="targetPoint" />
          </mxGeometry>
        </mxCell>
        <mxCell id="m5Ycttszaz3Ppnd9wIek-50" value="" style="endArrow=none;html=1;" edge="1" parent="m5Ycttszaz3Ppnd9wIek-45">
          <mxGeometry width="50" height="50" relative="1" as="geometry">
            <mxPoint x="5" y="27" as="sourcePoint" />
            <mxPoint x="25" y="27" as="targetPoint" />
          </mxGeometry>
        </mxCell>
        <mxCell id="m5Ycttszaz3Ppnd9wIek-51" value="" style="endArrow=none;html=1;" edge="1" parent="m5Ycttszaz3Ppnd9wIek-45">
          <mxGeometry width="50" height="50" relative="1" as="geometry">
            <mxPoint x="5" y="33" as="sourcePoint" />
            <mxPoint x="25" y="33" as="targetPoint" />
          </mxGeometry>
        </mxCell>
        <mxCell id="m5Ycttszaz3Ppnd9wIek-61" value="receives ▶" style="text;html=1;strokeColor=none;fillColor=none;align=center;verticalAlign=middle;whiteSpace=wrap;rounded=0;rotation=0;" vertex="1" parent="m5Ycttszaz3Ppnd9wIek-43">
          <mxGeometry x="130" y="30" width="130" height="20" as="geometry" />
        </mxCell>
        <mxCell id="m5Ycttszaz3Ppnd9wIek-54" value="&amp;nbsp; long-overdue criteria" style="rounded=0;whiteSpace=wrap;html=1;align=left;" vertex="1" parent="1">
          <mxGeometry x="120" y="249.9999999999999" width="140" height="24" as="geometry" />
        </mxCell>
        <mxCell id="m5Ycttszaz3Ppnd9wIek-56" value="" style="endArrow=none;html=1;entryX=0.007;entryY=0.617;entryDx=0;entryDy=0;entryPerimeter=0;rounded=0;" edge="1" parent="1" target="m5Ycttszaz3Ppnd9wIek-44">
          <mxGeometry width="50" height="50" relative="1" as="geometry">
            <mxPoint x="40" y="300" as="sourcePoint" />
            <mxPoint x="100" y="248" as="targetPoint" />
            <Array as="points">
              <mxPoint x="40" y="227" />
            </Array>
          </mxGeometry>
        </mxCell>
        <mxCell id="m5Ycttszaz3Ppnd9wIek-59" value="" style="endArrow=none;html=1;entryX=0;entryY=0.75;entryDx=0;entryDy=0;" edge="1" parent="1" target="m5Ycttszaz3Ppnd9wIek-21">
          <mxGeometry width="50" height="50" relative="1" as="geometry">
            <mxPoint x="260" y="222" as="sourcePoint" />
            <mxPoint x="310" y="170" as="targetPoint" />
          </mxGeometry>
        </mxCell>
        <mxCell id="m5Ycttszaz3Ppnd9wIek-72" value="&amp;nbsp; &amp;lt;&amp;lt;entity&amp;gt;&amp;gt;&lt;br&gt;Notification Request" style="rounded=0;whiteSpace=wrap;html=1;" vertex="1" parent="1">
          <mxGeometry x="120" y="40" width="140" height="60" as="geometry" />
        </mxCell>
        <mxCell id="m5Ycttszaz3Ppnd9wIek-73" value="" style="group" vertex="1" connectable="0" parent="1">
          <mxGeometry x="110" y="20" width="30" height="40" as="geometry" />
        </mxCell>
        <mxCell id="m5Ycttszaz3Ppnd9wIek-74" value="" style="whiteSpace=wrap;html=1;shape=mxgraph.basic.document" vertex="1" parent="m5Ycttszaz3Ppnd9wIek-73">
          <mxGeometry width="30" height="40" as="geometry" />
        </mxCell>
        <mxCell id="m5Ycttszaz3Ppnd9wIek-75" value="" style="endArrow=none;html=1;" edge="1" parent="m5Ycttszaz3Ppnd9wIek-73">
          <mxGeometry width="50" height="50" relative="1" as="geometry">
            <mxPoint x="5" y="9" as="sourcePoint" />
            <mxPoint x="25" y="9" as="targetPoint" />
          </mxGeometry>
        </mxCell>
        <mxCell id="m5Ycttszaz3Ppnd9wIek-76" value="" style="endArrow=none;html=1;" edge="1" parent="m5Ycttszaz3Ppnd9wIek-73">
          <mxGeometry width="50" height="50" relative="1" as="geometry">
            <mxPoint x="5" y="15" as="sourcePoint" />
            <mxPoint x="25" y="15" as="targetPoint" />
          </mxGeometry>
        </mxCell>
        <mxCell id="m5Ycttszaz3Ppnd9wIek-77" value="" style="endArrow=none;html=1;" edge="1" parent="m5Ycttszaz3Ppnd9wIek-73">
          <mxGeometry width="50" height="50" relative="1" as="geometry">
            <mxPoint x="5" y="21" as="sourcePoint" />
            <mxPoint x="25" y="21" as="targetPoint" />
          </mxGeometry>
        </mxCell>
        <mxCell id="m5Ycttszaz3Ppnd9wIek-78" value="" style="endArrow=none;html=1;" edge="1" parent="m5Ycttszaz3Ppnd9wIek-73">
          <mxGeometry width="50" height="50" relative="1" as="geometry">
            <mxPoint x="5" y="27" as="sourcePoint" />
            <mxPoint x="25" y="27" as="targetPoint" />
          </mxGeometry>
        </mxCell>
        <mxCell id="m5Ycttszaz3Ppnd9wIek-79" value="" style="endArrow=none;html=1;" edge="1" parent="m5Ycttszaz3Ppnd9wIek-73">
          <mxGeometry width="50" height="50" relative="1" as="geometry">
            <mxPoint x="5" y="33" as="sourcePoint" />
            <mxPoint x="25" y="33" as="targetPoint" />
          </mxGeometry>
        </mxCell>
        <mxCell id="m5Ycttszaz3Ppnd9wIek-80" value="&amp;nbsp; notification methods" style="rounded=0;whiteSpace=wrap;html=1;align=left;" vertex="1" parent="1">
          <mxGeometry x="120" y="99.99999999999989" width="140" height="24" as="geometry" />
        </mxCell>
        <mxCell id="m5Ycttszaz3Ppnd9wIek-81" value="" style="endArrow=none;html=1;rounded=0;" edge="1" parent="1">
          <mxGeometry width="50" height="50" relative="1" as="geometry">
            <mxPoint x="40" y="230" as="sourcePoint" />
            <mxPoint x="120" y="80" as="targetPoint" />
            <Array as="points">
              <mxPoint x="40" y="80" />
            </Array>
          </mxGeometry>
        </mxCell>
        <mxCell id="m5Ycttszaz3Ppnd9wIek-82" value="" style="endArrow=none;html=1;entryX=0.5;entryY=0;entryDx=0;entryDy=0;rounded=0;" edge="1" parent="1" target="m5Ycttszaz3Ppnd9wIek-21">
          <mxGeometry width="50" height="50" relative="1" as="geometry">
            <mxPoint x="260" y="80" as="sourcePoint" />
            <mxPoint x="420" y="80" as="targetPoint" />
            <Array as="points">
              <mxPoint x="420" y="80" />
            </Array>
          </mxGeometry>
        </mxCell>
        <mxCell id="m5Ycttszaz3Ppnd9wIek-83" value="receives ▶" style="text;html=1;strokeColor=none;fillColor=none;align=center;verticalAlign=middle;whiteSpace=wrap;rounded=0;rotation=0;" vertex="1" parent="1">
          <mxGeometry x="310" y="60" width="130" height="20" as="geometry" />
        </mxCell>
        <mxCell id="m5Ycttszaz3Ppnd9wIek-84" value="SMS Svc" style="shape=umlActor;verticalLabelPosition=bottom;verticalAlign=top;html=1;outlineConnect=0;" vertex="1" parent="1">
          <mxGeometry x="930" y="144" width="30" height="60" as="geometry" />
        </mxCell>
        <mxCell id="m5Ycttszaz3Ppnd9wIek-85" value="E-mail Svc" style="shape=umlActor;verticalLabelPosition=bottom;verticalAlign=top;html=1;outlineConnect=0;" vertex="1" parent="1">
          <mxGeometry x="930" y="60" width="30" height="60" as="geometry" />
        </mxCell>
        <mxCell id="m5Ycttszaz3Ppnd9wIek-86" value="" style="group" vertex="1" connectable="0" parent="1">
          <mxGeometry x="560" y="40" width="155" height="115" as="geometry" />
        </mxCell>
        <mxCell id="m5Ycttszaz3Ppnd9wIek-87" value="" style="group" vertex="1" connectable="0" parent="m5Ycttszaz3Ppnd9wIek-86">
          <mxGeometry width="155" height="75" as="geometry" />
        </mxCell>
        <mxCell id="m5Ycttszaz3Ppnd9wIek-88" value="&amp;lt;&amp;lt;entity&amp;gt;&amp;gt;&lt;br&gt;Notification Builder" style="rounded=0;whiteSpace=wrap;html=1;" vertex="1" parent="m5Ycttszaz3Ppnd9wIek-87">
          <mxGeometry x="15" y="15" width="140" height="60" as="geometry" />
        </mxCell>
        <mxCell id="m5Ycttszaz3Ppnd9wIek-89" value="" style="verticalLabelPosition=bottom;verticalAlign=top;html=1;shape=mxgraph.basic.smiley" vertex="1" parent="m5Ycttszaz3Ppnd9wIek-87">
          <mxGeometry width="30" height="30" as="geometry" />
        </mxCell>
        <mxCell id="m5Ycttszaz3Ppnd9wIek-90" value="" style="endArrow=none;html=1;entryX=0;entryY=0.417;entryDx=0;entryDy=0;exitX=0.664;exitY=0.017;exitDx=0;exitDy=0;exitPerimeter=0;rounded=0;entryPerimeter=0;" edge="1" parent="1" source="m5Ycttszaz3Ppnd9wIek-21" target="m5Ycttszaz3Ppnd9wIek-88">
          <mxGeometry width="50" height="50" relative="1" as="geometry">
            <mxPoint x="460" y="170" as="sourcePoint" />
            <mxPoint x="510" y="120" as="targetPoint" />
            <Array as="points">
              <mxPoint x="443" y="100" />
              <mxPoint x="443" y="80" />
            </Array>
          </mxGeometry>
        </mxCell>
        <mxCell id="m5Ycttszaz3Ppnd9wIek-92" value="conveys-requests ▶" style="text;html=1;strokeColor=none;fillColor=none;align=center;verticalAlign=middle;whiteSpace=wrap;rounded=0;rotation=0;" vertex="1" parent="1">
          <mxGeometry x="440" y="60" width="130" height="20" as="geometry" />
        </mxCell>
        <mxCell id="m5Ycttszaz3Ppnd9wIek-93" value="" style="group" vertex="1" connectable="0" parent="1">
          <mxGeometry x="690" y="124" width="150" height="80" as="geometry" />
        </mxCell>
        <mxCell id="m5Ycttszaz3Ppnd9wIek-94" value="&amp;lt;&amp;lt;boundary&amp;gt;&amp;gt;&lt;br&gt;Notification Contents" style="rounded=0;whiteSpace=wrap;html=1;" vertex="1" parent="m5Ycttszaz3Ppnd9wIek-93">
          <mxGeometry x="10" y="20" width="140" height="60" as="geometry" />
        </mxCell>
        <mxCell id="m5Ycttszaz3Ppnd9wIek-95" value="" style="group" vertex="1" connectable="0" parent="m5Ycttszaz3Ppnd9wIek-93">
          <mxGeometry width="30" height="40" as="geometry" />
        </mxCell>
        <mxCell id="m5Ycttszaz3Ppnd9wIek-96" value="" style="whiteSpace=wrap;html=1;shape=mxgraph.basic.document" vertex="1" parent="m5Ycttszaz3Ppnd9wIek-95">
          <mxGeometry width="30" height="40" as="geometry" />
        </mxCell>
        <mxCell id="m5Ycttszaz3Ppnd9wIek-97" value="" style="endArrow=none;html=1;" edge="1" parent="m5Ycttszaz3Ppnd9wIek-95">
          <mxGeometry width="50" height="50" relative="1" as="geometry">
            <mxPoint x="5" y="9" as="sourcePoint" />
            <mxPoint x="25" y="9" as="targetPoint" />
          </mxGeometry>
        </mxCell>
        <mxCell id="m5Ycttszaz3Ppnd9wIek-98" value="" style="endArrow=none;html=1;" edge="1" parent="m5Ycttszaz3Ppnd9wIek-95">
          <mxGeometry width="50" height="50" relative="1" as="geometry">
            <mxPoint x="5" y="15" as="sourcePoint" />
            <mxPoint x="25" y="15" as="targetPoint" />
          </mxGeometry>
        </mxCell>
        <mxCell id="m5Ycttszaz3Ppnd9wIek-99" value="" style="endArrow=none;html=1;" edge="1" parent="m5Ycttszaz3Ppnd9wIek-95">
          <mxGeometry width="50" height="50" relative="1" as="geometry">
            <mxPoint x="5" y="21" as="sourcePoint" />
            <mxPoint x="25" y="21" as="targetPoint" />
          </mxGeometry>
        </mxCell>
        <mxCell id="m5Ycttszaz3Ppnd9wIek-100" value="" style="endArrow=none;html=1;" edge="1" parent="m5Ycttszaz3Ppnd9wIek-95">
          <mxGeometry width="50" height="50" relative="1" as="geometry">
            <mxPoint x="5" y="27" as="sourcePoint" />
            <mxPoint x="25" y="27" as="targetPoint" />
          </mxGeometry>
        </mxCell>
        <mxCell id="m5Ycttszaz3Ppnd9wIek-101" value="" style="endArrow=none;html=1;" edge="1" parent="m5Ycttszaz3Ppnd9wIek-95">
          <mxGeometry width="50" height="50" relative="1" as="geometry">
            <mxPoint x="5" y="33" as="sourcePoint" />
            <mxPoint x="25" y="33" as="targetPoint" />
          </mxGeometry>
        </mxCell>
        <mxCell id="m5Ycttszaz3Ppnd9wIek-104" value="prepares ▶" style="text;html=1;strokeColor=none;fillColor=none;align=center;verticalAlign=middle;whiteSpace=wrap;rounded=0;rotation=0;" vertex="1" parent="1">
          <mxGeometry x="710" y="60" width="130" height="20" as="geometry" />
        </mxCell>
        <mxCell id="m5Ycttszaz3Ppnd9wIek-105" value="" style="endArrow=none;html=1;entryX=0.75;entryY=0;entryDx=0;entryDy=0;rounded=0;" edge="1" parent="1" target="m5Ycttszaz3Ppnd9wIek-94">
          <mxGeometry width="50" height="50" relative="1" as="geometry">
            <mxPoint x="715" y="80" as="sourcePoint" />
            <mxPoint x="765" y="30" as="targetPoint" />
            <Array as="points">
              <mxPoint x="805" y="80" />
            </Array>
          </mxGeometry>
        </mxCell>
        <mxCell id="m5Ycttszaz3Ppnd9wIek-106" value="" style="endArrow=none;html=1;" edge="1" parent="1">
          <mxGeometry width="50" height="50" relative="1" as="geometry">
            <mxPoint x="490" y="189" as="sourcePoint" />
            <mxPoint x="700" y="189" as="targetPoint" />
          </mxGeometry>
        </mxCell>
        <mxCell id="m5Ycttszaz3Ppnd9wIek-107" value="conveys-requests ▶" style="text;html=1;strokeColor=none;fillColor=none;align=center;verticalAlign=middle;whiteSpace=wrap;rounded=0;rotation=0;" vertex="1" parent="1">
          <mxGeometry x="560" y="170" width="130" height="20" as="geometry" />
        </mxCell>
        <mxCell id="m5Ycttszaz3Ppnd9wIek-108" value="" style="endArrow=none;html=1;rounded=0;" edge="1" parent="1">
          <mxGeometry width="50" height="50" relative="1" as="geometry">
            <mxPoint x="900" y="180" as="sourcePoint" />
            <mxPoint x="920" y="90" as="targetPoint" />
            <Array as="points">
              <mxPoint x="900" y="90" />
            </Array>
          </mxGeometry>
        </mxCell>
        <mxCell id="m5Ycttszaz3Ppnd9wIek-110" value="" style="endArrow=none;html=1;exitX=1;exitY=0.5;exitDx=0;exitDy=0;rounded=0;" edge="1" parent="1" source="m5Ycttszaz3Ppnd9wIek-94">
          <mxGeometry width="50" height="50" relative="1" as="geometry">
            <mxPoint x="850" y="180" as="sourcePoint" />
            <mxPoint x="900" y="130" as="targetPoint" />
            <Array as="points">
              <mxPoint x="870" y="174" />
              <mxPoint x="870" y="130" />
            </Array>
          </mxGeometry>
        </mxCell>
        <mxCell id="m5Ycttszaz3Ppnd9wIek-111" value="" style="endArrow=none;html=1;" edge="1" parent="1">
          <mxGeometry width="50" height="50" relative="1" as="geometry">
            <mxPoint x="900" y="180" as="sourcePoint" />
            <mxPoint x="920" y="180" as="targetPoint" />
          </mxGeometry>
        </mxCell>
      </root>
    </mxGraphModel>
  </diagram>
</mxfile>
